HIERARCHY
ROOT hip
{
  OFFSET 0 0 0
  CHANNELS 6 Xposition Yposition Zposition Zrotation Yrotation Xrotation
  JOINT abdomen
  {
    OFFSET 0 20.6881 -0.73152
    CHANNELS 3 Zrotation Xrotation Yrotation
    JOINT chest
    {
      OFFSET 0 11.7043 -0.48768
      CHANNELS 3 Zrotation Xrotation Yrotation
      JOINT neck
      {
        OFFSET 0 22.1894 -2.19456
        CHANNELS 3 Zrotation Xrotation Yrotation
        JOINT head
        {
          OFFSET -0.24384 7.07133 1.2192
          CHANNELS 3 Zrotation Xrotation Yrotation
          JOINT leftEye
          {
            OFFSET 4.14528 8.04674 8.04672
            CHANNELS 3 Zrotation Xrotation Yrotation
            End Site
            {
              OFFSET 1 0 0
            }
          }
          JOINT rightEye
          {
            OFFSET -3.6576 8.04674 8.04672
            CHANNELS 3 Zrotation Xrotation Yrotation
            End Site
            {
              OFFSET 1 0 0
            }
          }
        }
      }
      JOINT rCollar
      {
        OFFSET -2.68224 19.2634 -4.8768
        CHANNELS 3 Zrotation Xrotation Yrotation
        JOINT rShldr
        {
          OFFSET -8.77824 -1.95073 1.46304
          CHANNELS 3 Zrotation Xrotation Yrotation
          JOINT rForeArm
          {
            OFFSET -28.1742 -1.7115 0.48768
            CHANNELS 3 Zrotation Xrotation Yrotation
            JOINT rHand
            {
              OFFSET -22.5879 0.773209 7.07136
              CHANNELS 3 Zrotation Xrotation Yrotation
              JOINT rThumb1
              {
                OFFSET -1.2192 -0.487915 3.41376
                CHANNELS 3 Zrotation Xrotation Yrotation
                JOINT rThumb2
                {
                  OFFSET -3.37035 -0.52449 3.41376
                  CHANNELS 3 Zrotation Xrotation Yrotation
                  End Site
                  {
                    OFFSET -1.78271 -1.18214 1.43049
                  }
                }
              }
              JOINT rIndex1
              {
                OFFSET -7.75947 0.938293 5.60832
                CHANNELS 3 Zrotation Xrotation Yrotation
                JOINT rIndex2
                {
                  OFFSET -2.54057 -0.884171 1.56538
                  CHANNELS 3 Zrotation Xrotation Yrotation
                  End Site
                  {
                    OFFSET -1.62519 -0.234802 1.16502
                  }
                }
              }
              JOINT rMid1
              {
                OFFSET -8.24714 1.18213 3.41376
                CHANNELS 3 Zrotation Xrotation Yrotation
                JOINT rMid2
                {
                  OFFSET -3.10165 -0.590103 1.0647
                  CHANNELS 3 Zrotation Xrotation Yrotation
                  End Site
                  {
                    OFFSET -2.48547 -0.328903 0.83742
                  }
                }
              }
              JOINT rRing1
              {
                OFFSET -8.82822 0.546677 1.51678
                CHANNELS 3 Zrotation Xrotation Yrotation
                JOINT rRing2
                {
                  OFFSET -2.60934 -0.819778 -0.0198488
                  CHANNELS 3 Zrotation Xrotation Yrotation
                  End Site
                  {
                    OFFSET -2.33842 -0.294052 0.168128
                  }
                }
              }
              JOINT rPinky1
              {
                OFFSET -8.27202 -0.0477905 -0.4584
                CHANNELS 3 Zrotation Xrotation Yrotation
                JOINT rPinky2
                {
                  OFFSET -1.82734 -0.647385 -0.700984
                  CHANNELS 3 Zrotation Xrotation Yrotation
                  End Site
                  {
                    OFFSET -1.69225 -0.51767 -0.607171
                  }
                }
              }
            }
          }
        }
      }
      JOINT lCollar
      {
        OFFSET 2.68224 19.2634 -4.8768
        CHANNELS 3 Zrotation Xrotation Yrotation
        JOINT lShldr
        {
          OFFSET 8.77824 -1.95073 1.46304
          CHANNELS 3 Zrotation Xrotation Yrotation
          JOINT lForeArm
          {
            OFFSET 28.1742 -1.7115 0.48768
            CHANNELS 3 Zrotation Xrotation Yrotation
            JOINT lHand
            {
              OFFSET 22.5879 0.773209 7.07136
              CHANNELS 3 Zrotation Xrotation Yrotation
              JOINT lThumb1
              {
                OFFSET 1.2192 -0.487915 3.41376
                CHANNELS 3 Zrotation Xrotation Yrotation
                JOINT lThumb2
                {
                  OFFSET 3.37035 -0.52449 3.41376
                  CHANNELS 3 Zrotation Xrotation Yrotation
                  End Site
                  {
                    OFFSET 1.78271 -1.18214 1.43049
                  }
                }
              }
              JOINT lIndex1
              {
                OFFSET 7.75947 0.938293 5.60832
                CHANNELS 3 Zrotation Xrotation Yrotation
                JOINT lIndex2
                {
                  OFFSET 2.54057 -0.884171 1.56538
                  CHANNELS 3 Zrotation Xrotation Yrotation
                  End Site
                  {
                    OFFSET 1.62519 -0.234802 1.16502
                  }
                }
              }
              JOINT lMid1
              {
                OFFSET 8.24714 1.18213 3.41376
                CHANNELS 3 Zrotation Xrotation Yrotation
                JOINT lMid2
                {
                  OFFSET 3.10165 -0.590103 1.0647
                  CHANNELS 3 Zrotation Xrotation Yrotation
                  End Site
                  {
                    OFFSET 2.48547 -0.328903 0.83742
                  }
                }
              }
              JOINT lRing1
              {
                OFFSET 8.82822 0.546677 1.51678
                CHANNELS 3 Zrotation Xrotation Yrotation
                JOINT lRing2
                {
                  OFFSET 2.60934 -0.819778 -0.0198488
                  CHANNELS 3 Zrotation Xrotation Yrotation
                  End Site
                  {
                    OFFSET 2.33842 -0.294052 0.168128
                  }
                }
              }
              JOINT lPinky1
              {
                OFFSET 8.27202 -0.0477905 -0.4584
                CHANNELS 3 Zrotation Xrotation Yrotation
                JOINT lPinky2
                {
                  OFFSET 1.82734 -0.647385 -0.700984
                  CHANNELS 3 Zrotation Xrotation Yrotation
                  End Site
                  {
                    OFFSET 1.69225 -0.51767 -0.607171
                  }
                }
              }
            }
          }
        }
      }
    }
  }
  JOINT rButtock
  {
    OFFSET -8.77824 4.35084 1.2192
    CHANNELS 3 Zrotation Xrotation Yrotation
    JOINT rThigh
    {
      OFFSET 0 -1.70687 -2.19456
      CHANNELS 3 Zrotation Xrotation Yrotation
      JOINT rShin
      {
        OFFSET 0 -36.8199 0.73152
        CHANNELS 3 Zrotation Xrotation Yrotation
        JOINT rFoot
        {
          OFFSET 0.73152 -45.1104 -5.12064
          CHANNELS 3 Zrotation Xrotation Yrotation
          End Site
          {
            OFFSET -1.1221 -3.69964 12.103
          }
        }
      }
    }
  }
  JOINT lButtock
  {
    OFFSET 8.77824 4.35084 1.2192
    CHANNELS 3 Zrotation Xrotation Yrotation
    JOINT lThigh
    {
      OFFSET 0 -1.70687 -2.19456
      CHANNELS 3 Zrotation Xrotation Yrotation
      JOINT lShin
      {
        OFFSET 0 -36.8199 0.73152
        CHANNELS 3 Zrotation Xrotation Yrotation
        JOINT lFoot
        {
          OFFSET -0.73152 -45.1104 -5.12064
          CHANNELS 3 Zrotation Xrotation Yrotation
          End Site
          {
            OFFSET 1.1221 -3.69964 12.103
          }
        }
      }
    }
  }
}
MOTION
Frames:	9
Frame Time:	0.00833333
44.0182 59.5916 46.4522 -2.975 -39.5799 13.0678 11.1137 60.6522 -14.4355 -2.6322 -1.19827 -2.38273 2.32524 18.12 2.18412 5.43152 -66.4021 7.94495 -0.0 0.0 0.0 -0.0 0.0 0.0 -5.51394e-13 1.79441e-13 7.67658e-14 48.4338 48.499 21.19 -27.9893 -40.458 84.7576 -0.0947221 8.73925 1.23795 3.99114e-09 -2.7711e-09 -4.52303e-09 6.86428e-09 -4.73442e-09 -7.84176e-09 3.99115e-09 -2.7711e-09 -4.52305e-09 7.73091 5.47488 0.417314 3.99114e-09 -2.7711e-09 -4.52303e-09 2.90554 0.965183 0.102902 3.99114e-09 -2.77109e-09 -4.52303e-09 10.2786 0.731801 0.0259123 3.99114e-09 -2.7711e-09 -4.52303e-09 2.22167 -0.733487 -0.20892 -5.51496e-13 1.79414e-13 7.65717e-14 0.270575 -4.96559 -67.3103 28.2802 -32.6903 -71.5688 4.79828 -51.0794 10.0227 -4.67674e-09 7.28895e-10 -2.3123e-09 -7.95737e-09 1.32638e-09 -4.17546e-09 -4.67675e-09 7.28896e-10 -2.31229e-09 -7.73091 5.47488 -0.417314 -4.67675e-09 7.28895e-10 -2.31229e-09 -2.90554 0.965183 -0.102902 -4.67675e-09 7.28895e-10 -2.31228e-09 -10.2786 0.731801 -0.0259123 -4.67674e-09 7.28897e-10 -2.31228e-09 -2.22167 -0.733487 0.20892 -2.03217e-16 0.0 -3.88251e-19 17.8701 -65.797 10.6556 -2.65073 74.1576 3.57284 -9.58076 -17.396 -21.9271 2.03217e-16 0.0 3.88251e-19 100.76 -73.4013 105.989 177.19 49.643 -176.917 0.0265872 -11.3244 -6.68152
43.7514 59.0686 46.8785 -2.8158 -39.9192 12.4953 10.6594 61.5362 -14.2438 -2.65979 -1.26665 -2.38183 2.35253 18.0745 2.21406 5.48982 -66.6292 8.06229 -0.0 0.0 0.0 -0.0 0.0 0.0 -2.43657e-13 4.60183e-14 -2.74571e-14 46.9393 48.1654 23.0008 -27.886 -40.9756 85.6912 -0.0900124 8.51809 1.20616 2.33534e-09 -1.68252e-09 -2.45968e-09 4.02087e-09 -2.88264e-09 -4.26667e-09 2.33535e-09 -1.68251e-09 -2.45969e-09 7.73091 5.47488 0.417314 2.33534e-09 -1.68251e-09 -2.45967e-09 2.90554 0.965183 0.102902 2.33534e-09 -1.68251e-09 -2.45968e-09 10.2786 0.731801 0.0259123 2.33534e-09 -1.68251e-09 -2.45968e-09 2.22167 -0.733487 -0.20892 -2.43776e-13 4.6018e-14 -2.76497e-14 0.467257 -6.60774 -66.7691 28.2705 -32.5968 -71.4185 5.05977 -51.9865 10.357 -3.69758e-09 4.29273e-10 -1.17117e-09 -6.3161e-09 7.28419e-10 -2.17072e-09 -3.69758e-09 4.29273e-10 -1.17116e-09 -7.73091 5.47488 -0.417314 -3.69758e-09 4.29273e-10 -1.17116e-09 -2.90554 0.965183 -0.102902 -3.69758e-09 4.29273e-10 -1.17116e-09 -10.2786 0.731801 -0.0259123 -3.69757e-09 4.29275e-10 -1.17116e-09 -2.22167 -0.733487 0.20892 -2.03217e-16 0.0 -3.88251e-19 18.1219 -65.7853 10.9903 -2.99129 75.5244 3.91699 -9.91268 -17.9722 -22.3033 2.03217e-16 0.0 3.88251e-19 109.809 -73.384 114.931 177.147 50.4113 -176.781 0.137558 -10.8236 -6.19534
43.4839 58.5428 47.3114 -2.641 -40.2658 11.9311 10.1931 62.3872 -14.0285 -2.69651 -1.33516 -2.38171 2.37871 18.0325 2.24247 5.52971 -66.8422 8.16393 -0.0 0.0 0.0 -0.0 0.0 0.0 1.04831e-13 -1.05047e-13 -1.48328e-13 45.4431 47.7986 24.817 -27.7772 -41.4653 86.5826 -0.0852716 8.29479 1.17407 5.40549e-10 -5.12687e-10 -2.72249e-10 9.38638e-10 -8.91304e-10 -4.76483e-10 5.40555e-10 -5.12682e-10 -2.72271e-10 7.73091 5.47488 0.417314 5.40547e-10 -5.1268e-10 -2.7225e-10 2.90554 0.965183 0.102902 5.40553e-10 -5.12678e-10 -2.7225e-10 10.2786 0.731801 0.0259123 5.40543e-10 -5.12682e-10 -2.72247e-10 2.22167 -0.733487 -0.20892 1.04696e-13 -1.0502e-13 -1.48522e-13 0.648555 -8.22632 -66.2379 28.2594 -32.4927 -71.2504 5.32757 -52.865 10.6949 -2.72922e-09 1.14409e-10 1.06349e-11 -4.69533e-09 1.02427e-10 -9.54515e-11 -2.72922e-09 1.14409e-10 1.06445e-11 -7.73091 5.47488 -0.417314 -2.72922e-09 1.1441e-10 1.06434e-11 -2.90554 0.965183 -0.102902 -2.72922e-09 1.14409e-10 1.06388e-11 -10.2786 0.731801 -0.0259123 -2.72922e-09 1.14411e-10 1.06313e-11 -2.22167 -0.733487 0.20892 -2.03217e-16 0.0 -3.88251e-19 18.4087 -65.7596 11.3672 -3.39397 76.8648 4.32055 -10.2539 -18.5409 -22.6924 2.03217e-16 0.0 3.88251e-19 118.188 -73.1028 123.198 177.092 51.3926 -176.647 0.252855 -10.3596 -5.63443
43.2122 58.0219 47.7488 -2.4563 -40.6063 11.3744 9.76567 63.2168 -13.8257 -2.73882 -1.41585 -2.38363 2.40273 18.0016 2.26777 5.54838 -67.048 8.24505 -0.0 0.0 0.0 -0.0 0.0 0.0 3.08595e-13 -1.69383e-13 -2.02661e-13 43.9656 47.3963 26.6049 -27.6619 -41.919 87.4349 -0.0798351 8.03461 1.13673 -5.42064e-10 1.79499e-10 9.82362e-10 -9.21423e-10 2.89084e-10 1.69778e-09 -5.4206e-10 1.79506e-10 9.82337e-10 7.73091 5.47488 0.417314 -5.42067e-10 1.79507e-10 9.82359e-10 2.90554 0.965183 0.102902 -5.42059e-10 1.79507e-10 9.82361e-10 10.2786 0.731801 0.0259123 -5.42071e-10 1.79503e-10 9.82365e-10 2.22167 -0.733487 -0.20892 3.08453e-13 -1.69347e-13 -2.0286e-13 0.795838 -9.80596 -65.7701 28.2466 -32.3746 -71.058 5.58817 -53.6744 11.0195 -1.98597e-09 -8.00299e-11 7.4828e-10 -3.44476e-09 -2.74339e-10 1.20525e-09 -1.98597e-09 -8.00303e-11 7.48289e-10 -7.73091 5.47488 -0.417314 -1.98597e-09 -8.00293e-11 7.48286e-10 -2.90554 0.965183 -0.102902 -1.98597e-09 -8.00295e-11 7.4828e-10 -10.2786 0.731801 -0.0259123 -1.98597e-09 -8.00275e-11 7.4827e-10 -2.22167 -0.733487 0.20892 -2.03217e-16 0.0 -3.88251e-19 18.6889 -65.6938 11.7306 -3.86903 78.1576 4.79856 -10.6005 -19.101 -23.0844 2.03217e-16 0.0 3.88251e-19 125.471 -72.6203 130.343 177.028 52.5506 -176.525 0.376163 -9.96342 -5.00079
42.9352 57.5109 48.196 -2.2641 -40.9378 10.8166 9.39952 64.0587 -13.6533 -2.7868 -1.52364 -2.38919 2.42394 17.9797 2.29052 5.54225 -67.2475 8.30416 -0.0 0.0 0.0 -0.0 0.0 0.0 3.0742e-13 -1.04788e-13 -1.59018e-13 42.5003 46.9676 28.3767 -27.5448 -42.3404 88.239 -0.0741877 7.74461 1.09518 -5.69613e-10 2.20405e-10 8.19511e-10 -9.70898e-10 3.65769e-10 1.41646e-09 -5.69609e-10 2.20411e-10 8.19484e-10 7.73091 5.47488 0.417314 -5.69616e-10 2.20411e-10 8.19507e-10 2.90554 0.965183 0.102902 -5.69607e-10 2.20411e-10 8.1951e-10 10.2786 0.731801 0.0259123 -5.6962e-10 2.20407e-10 8.19514e-10 2.22167 -0.733487 -0.20892 3.07289e-13 -1.0477e-13 -1.59228e-13 0.898378 -11.326 -65.3311 28.2316 -32.2429 -70.8453 5.84037 -54.4226 11.3309 -1.60848e-09 -9.23559e-11 8.34008e-10 -2.79812e-09 -2.76152e-10 1.36728e-09 -1.60848e-09 -9.23564e-11 8.34017e-10 -7.73091 5.47488 -0.417314 -1.60848e-09 -9.2356e-11 8.34008e-10 -2.90554 0.965183 -0.102902 -1.60848e-09 -9.23556e-11 8.34007e-10 -10.2786 0.731801 -0.0259123 -1.60847e-09 -9.23537e-11 8.33996e-10 -2.22167 -0.733487 0.20892 -2.03217e-16 0.0 -3.88251e-19 18.9499 -65.5632 12.0616 -4.43718 79.3997 5.37184 -10.9531 -19.6471 -23.4857 2.03217e-16 0.0 3.88251e-19 131.624 -72.074 136.301 176.958 53.9 -176.419 0.5153 -9.64776 -4.26212
42.6505 57.0167 48.6528 -2.0663 -41.2564 10.2553 9.06598 64.8966 -13.49 -2.84202 -1.6482 -2.39731 2.44299 17.9642 2.31126 5.51264 -67.4374 8.34284 -0.0 0.0 0.0 -0.0 0.0 0.0 2.03813e-13 2.82848e-14 -6.48504e-14 41.0437 46.5103 30.1399 -27.4304 -42.7371 88.9881 -0.0686001 7.43788 1.05132 -3.46903e-11 -8.36961e-11 -1.29524e-10 -5.52601e-11 -1.41219e-10 -2.2677e-10 -3.46846e-11 -8.36929e-11 -1.29553e-10 7.73091 5.47488 0.417314 -3.46919e-11 -8.36933e-11 -1.29529e-10 2.90554 0.965183 0.102902 -3.46832e-11 -8.36939e-11 -1.29527e-10 10.2786 0.731801 0.0259123 -3.46964e-11 -8.36971e-11 -1.29523e-10 2.22167 -0.733487 -0.20892 2.03703e-13 2.82686e-14 -6.50771e-14 0.96575 -12.7859 -64.8788 28.2143 -32.0984 -70.6144 6.08719 -55.1253 11.6333 -1.45462e-09 -3.42806e-12 5.52553e-10 -2.52208e-09 -6.8146e-11 8.87583e-10 -1.45462e-09 -3.4286e-12 5.52563e-10 -7.73091 5.47488 -0.417314 -1.45462e-09 -3.42928e-12 5.52545e-10 -2.90554 0.965183 -0.102902 -1.45463e-09 -3.42792e-12 5.52552e-10 -10.2786 0.731801 -0.0259123 -1.45461e-09 -3.42629e-12 5.52542e-10 -2.22167 -0.733487 0.20892 -2.03217e-16 0.0 -3.88251e-19 19.2114 -65.3878 12.3888 -5.1317 80.6012 6.07149 -11.3136 -20.1814 -23.8989 2.03217e-16 0.0 3.88251e-19 136.945 -71.5473 141.378 176.877 55.4523 -176.321 0.666896 -9.39388 -3.4278
42.3572 56.5412 49.1173 -1.8677 -41.5618 9.6955 8.74128 65.6665 -13.3153 -2.90319 -1.76371 -2.40519 2.46079 17.9617 2.32831 5.4641 -67.6183 8.36089 -0.0 0.0 0.0 -0.0 0.0 0.0 5.63735e-14 1.80218e-13 4.46967e-14 39.6205 46.0093 31.8554 -27.3174 -43.106 89.6889 -0.0623464 7.08871 1.00145 6.60656e-10 -5.71823e-10 -1.24775e-09 1.13567e-09 -9.63202e-10 -2.16293e-09 6.60663e-10 -5.71823e-10 -1.24778e-09 7.73091 5.47488 0.417314 6.60655e-10 -5.71824e-10 -1.24776e-09 2.90554 0.965183 0.102902 6.60663e-10 -5.71825e-10 -1.24775e-09 10.2786 0.731801 0.0259123 6.6065e-10 -5.71827e-10 -1.24775e-09 2.22167 -0.733487 -0.20892 5.62847e-14 1.80166e-13 4.44548e-14 1.00256 -14.189 -64.4593 28.1944 -31.9379 -70.3567 6.31755 -55.7537 11.9132 -1.31452e-09 1.086e-10 1.57822e-10 -2.26574e-09 1.90643e-10 2.12717e-10 -1.31453e-09 1.08599e-10 1.57832e-10 -7.73091 5.47488 -0.417314 -1.31452e-09 1.08598e-10 1.57806e-10 -2.90554 0.965183 -0.102902 -1.31453e-09 1.086e-10 1.57822e-10 -10.2786 0.731801 -0.0259123 -1.31451e-09 1.08601e-10 1.57812e-10 -2.22167 -0.733487 0.20892 -2.03217e-16 0.0 -3.88251e-19 19.4805 -65.2082 12.7271 -5.99389 81.7603 6.94023 -11.6786 -20.7139 -24.3071 2.03217e-16 0.0 3.88251e-19 141.565 -71.0357 145.738 176.781 57.1659 -176.221 0.81995 -9.1865 -2.56209
42.0568 56.0945 49.5849 -1.6682 -41.8544 9.1375 8.40096 66.3043 -13.1069 -2.96899 -1.84438 -2.41002 2.47823 17.9793 2.34003 5.40124 -67.7912 8.35814 -0.0 0.0 0.0 -0.0 0.0 0.0 -7.62983e-14 3.01394e-13 1.34478e-13 38.2563 45.4523 33.4841 -27.2043 -43.4432 90.3481 -0.0549006 6.67143 0.941912 1.11438e-09 -1.08299e-09 -1.91817e-09 1.91207e-09 -1.8315e-09 -3.32306e-09 1.11438e-09 -1.083e-09 -1.9182e-09 7.73091 5.47488 0.417314 1.11438e-09 -1.083e-09 -1.91818e-09 2.90554 0.965183 0.102902 1.11438e-09 -1.083e-09 -1.91818e-09 10.2786 0.731801 0.0259123 1.11437e-09 -1.083e-09 -1.91817e-09 2.22167 -0.733487 -0.20892 -7.63729e-14 3.01321e-13 1.34229e-13 1.00963 -15.5357 -64.1238 28.1715 -31.7577 -70.0636 6.51853 -56.2787 12.1553 -9.78311e-10 1.65575e-10 -9.62786e-11 -1.67821e-09 3.41178e-10 -2.10782e-10 -9.78313e-10 1.65574e-10 -9.6269e-11 -7.73091 5.47488 -0.417314 -9.78307e-10 1.65572e-10 -9.62977e-11 -2.90554 0.965183 -0.102902 -9.78321e-10 1.65575e-10 -9.62786e-11 -10.2786 0.731801 -0.0259123 -9.783e-10 1.65576e-10 -9.62881e-11 -2.22167 -0.733487 0.20892 -2.03217e-16 0.0 -3.88251e-19 19.7664 -65.0653 13.0933 -7.08664 82.875 8.04233 -12.0448 -21.2551 -24.6937 2.03217e-16 0.0 3.88251e-19 145.556 -70.5184 149.484 176.665 58.9995 -176.106 0.96384 -9.01093 -1.72923
41.7496 55.6743 50.054 -1.4658 -42.1357 8.5876 8.02906 66.7811 -12.8447 -3.04394 -1.88128 -2.41056 2.49621 18.0263 2.34539 5.3322 -67.9637 8.33882 -0.0 0.0 0.0 -0.0 0.0 0.0 -2.01353e-13 3.94519e-13 2.05287e-13 36.9528 44.8384 35.0254 -27.0931 -43.7564 90.9686 -0.0457121 6.13222 0.865104 1.23125e-09 -1.69461e-09 -1.94957e-09 2.11015e-09 -2.88147e-09 -3.37542e-09 1.23126e-09 -1.69461e-09 -1.9496e-09 7.73091 5.47488 0.417314 1.23125e-09 -1.69461e-09 -1.94958e-09 2.90554 0.965183 0.102902 1.23126e-09 -1.69461e-09 -1.94957e-09 10.2786 0.731801 0.0259123 1.23124e-09 -1.69461e-09 -1.94957e-09 2.22167 -0.733487 -0.20892 -2.01425e-13 3.94444e-13 2.05049e-13 0.980043 -16.8138 -63.8606 28.144 -31.5504 -69.727 6.67517 -56.6746 12.3429 -2.53858e-10 1.3524e-10 -1.56413e-10 -4.31603e-10 3.28287e-10 -2.82238e-10 -2.5386e-10 1.3524e-10 -1.56406e-10 -7.73091 5.47488 -0.417314 -2.53855e-10 1.35238e-10 -1.5643e-10 -2.90554 0.965183 -0.102902 -2.53868e-10 1.35241e-10 -1.56414e-10 -10.2786 0.731801 -0.0259123 -2.53849e-10 1.35241e-10 -1.56424e-10 -2.22167 -0.733487 0.20892 -2.03217e-16 0.0 -3.88251e-19 20.1007 -64.9778 13.5243 -8.52369 83.9509 9.49278 -12.4146 -21.8133 -25.0582 2.03217e-16 0.0 3.88251e-19 149.026 -70.0189 152.703 176.523 60.9557 -175.975 1.10718 -8.87198 -0.907997
